<svg width="520" height="414" xmlns="http://www.w3.org/2000/svg">

 <g>
  <title>Layer 1</title>
  <g id="svg_1" transform="matrix(2 0 0 2 0 0)">
   <g id="svg_2">
    <path id="svg_3" fill-rule="nonzero" fill="#119FE1" d="m117.87534,0.39397c35.598,-2.7754 63.098,10.558 82.5,40c2.723,4.7769 4.889,9.7769 6.5,15c27.037,2.539 44.204,16.872 51.5,43c4.196,30.758 -7.971,51.925 -36.5,63.5c-3.289,0.882 -6.623,1.548 -10,2c-8.833,0.167 -17.667,0.333 -26.5,0.5c-9.903,0.129 -19.737,-0.371 -29.5,-1.5c-11.533,-6.391 -16.533,-16.225 -15,-29.5c-4.044,0.542 -7.711,-0.291 -11,-2.5c-1.091,-2.064 -1.258,-4.231 -0.5,-6.5c4,-6 8,-12 12,-18c5.192,-4.046 9.858,-3.38 14,2c3.276,5.608 6.943,10.942 11,16c0.169,6.987 -3.331,9.987 -10.5,9c-0.79,5.469 0.877,9.969 5,13.5c17.667,0.667 35.333,0.667 53,0c18.721,-5.917 28.388,-18.75 29,-38.5c-1.469,-18.396 -11.135,-30.229 -29,-35.5c-6.689,-0.609 -13.356,-0.443 -20,0.5c-6.781,-35.6146 -28.281,-54.2813 -64.5,-56c-24.884,0.5691 -43.551,11.5691 -56,33c-3.406,7.384 -5.906,15.05 -7.5,23c-23.11,-3.534 -38.9436,5.466 -47.5,27c-3.7428,23.372 5.4238,38.872 27.5,46.5c18.667,0.333 37.333,0.667 56,1c13.48,5.106 19.146,14.939 17,29.5c3.808,-0.337 7.474,0.163 11,1.5c1.091,2.064 1.258,4.231 0.5,6.5c-4.783,7.117 -9.949,13.95 -15.5,20.5c-4.248,2.348 -8.081,1.848 -11.5,-1.5c-4.963,-7.097 -9.796,-14.264 -14.5,-21.5c0.39,-2.459 1.724,-4.126 4,-5c3.317,-0.498 6.65,-0.665 10,-0.5c0.165,-3.682 -0.001,-7.348 -0.5,-11c-0.75,-0.626 -1.584,-1.126 -2.5,-1.5c-18.333,-0.333 -36.667,-0.667 -55,-1c-21.9716,-5.305 -36.1383,-18.805 -42.5,-40.5c-4.9075,-33.032 8.2592,-55.199 39.5,-66.5c3.986,-0.499 7.986,-0.666 12,-0.5c7.391,-23.8987 22.725,-40.7321 46,-50.5c6.031,-2.1676 12.031,-4.001 18,-5.5z"/>
   </g>
  </g>
 </g>
</svg>